<svg width="38" height="30" viewBox="0 0 38 30" fill="none" xmlns="http://www.w3.org/2000/svg">
<path d="M22.4453 1.39844C22.4453 1.50781 22.375 1.625 22.2344 1.75C22.0938 1.85938 21.9844 1.95312 21.9062 2.03125C21.75 2.20312 21.6016 2.39062 21.4609 2.59375C21.3203 2.78125 21.1797 2.97656 21.0391 3.17969C20.1016 4.50781 19.2891 5.90625 18.6016 7.375C17.9297 8.82812 17.3203 10.3125 16.7734 11.8281C16.4453 12.75 16.1562 13.6875 15.9062 14.6406C15.6719 15.5938 15.4375 16.5547 15.2031 17.5234C14.9844 18.4766 14.75 19.4297 14.5 20.3828C14.25 21.3359 13.9531 22.2734 13.6094 23.1953C13.2812 24.0859 12.8906 24.9141 12.4375 25.6797C11.9844 26.4609 11.4531 27.1328 10.8438 27.6953C10.2344 28.2578 9.53125 28.6953 8.73438 29.0078C7.92188 29.3359 7 29.5 5.96875 29.5C5.21875 29.5 4.48438 29.3828 3.76562 29.1484C3.03125 28.9297 2.36719 28.5859 1.77344 28.1172C1.19531 27.6641 0.78125 27.1328 0.53125 26.5234C0.28125 25.9141 0.15625 25.2578 0.15625 24.5547C0.15625 23.6797 0.320312 22.8047 0.648438 21.9297C0.960938 21.0547 1.39062 20.2188 1.9375 19.4219C2.46875 18.6406 3.08594 17.9375 3.78906 17.3125C4.47656 16.6719 5.20312 16.1641 5.96875 15.7891C6.0625 15.7578 6.125 15.7422 6.15625 15.7422C6.25 15.7422 6.32812 15.7812 6.39062 15.8594C6.45312 15.9219 6.48438 16 6.48438 16.0938C6.48438 16.2344 6.42188 16.3438 6.29688 16.4219C6.125 16.5156 5.96094 16.6094 5.80469 16.7031C5.64844 16.7969 5.49219 16.8984 5.33594 17.0078C4.55469 17.5547 3.875 18.2031 3.29688 18.9531C2.71875 19.7031 2.23438 20.5078 1.84375 21.3672C1.625 21.8516 1.45312 22.3438 1.32812 22.8438C1.20312 23.3594 1.14062 23.875 1.14062 24.3906C1.14062 24.9688 1.24219 25.5078 1.44531 26.0078C1.63281 26.5078 1.95312 26.9375 2.40625 27.2969C2.90625 27.6719 3.46875 27.9453 4.09375 28.1172C4.71875 28.2891 5.32812 28.375 5.92188 28.375C6.82812 28.375 7.63281 28.2266 8.33594 27.9297C9.02344 27.6484 9.625 27.25 10.1406 26.7344C10.6562 26.2344 11.1016 25.6406 11.4766 24.9531C11.8672 24.2812 12.2031 23.5547 12.4844 22.7734C12.8281 21.8516 13.1172 20.9141 13.3516 19.9609C13.6016 19.0078 13.8281 18.0547 14.0312 17.1016C14.25 16.1328 14.4766 15.1719 14.7109 14.2188C14.9453 13.2656 15.2266 12.3203 15.5547 11.3828C16.0547 9.97656 16.6328 8.60938 17.2891 7.28125C17.9609 5.9375 18.7422 4.67188 19.6328 3.48438C19.3516 3.625 19.0625 3.76562 18.7656 3.90625C18.4844 4.04688 18.2109 4.20312 17.9453 4.375C17.2734 4.78125 16.6172 5.25781 15.9766 5.80469C15.3359 6.35156 14.875 7 14.5938 7.75C14.5312 7.89062 14.4844 8.03125 14.4531 8.17188C14.4375 8.29688 14.4141 8.42969 14.3828 8.57031C14.3672 8.63281 14.3281 8.6875 14.2656 8.73438C14.2031 8.76562 14.1406 8.78125 14.0781 8.78125C14.0156 8.78125 13.9297 8.75781 13.8203 8.71094C13.7266 8.64844 13.6797 8.57812 13.6797 8.5C13.6797 7.92188 13.7812 7.38281 13.9844 6.88281C14.2031 6.38281 14.4766 5.92188 14.8047 5.5C15.1484 5.0625 15.5391 4.67188 15.9766 4.32812C16.4141 3.96875 16.8594 3.64844 17.3125 3.36719C18.0469 2.91406 18.7969 2.47656 19.5625 2.05469C20.3438 1.63281 21.1406 1.27344 21.9531 0.976562H22.0234C22.1016 0.976562 22.1875 1.02344 22.2812 1.11719C22.3906 1.21094 22.4453 1.30469 22.4453 1.39844ZM37.2812 5.47656C37.2812 6.32031 37.125 7.11719 36.8125 7.86719C36.5156 8.61719 36.1094 9.32031 35.5938 9.97656C35.0781 10.6172 34.4766 11.1953 33.7891 11.7109C33.1172 12.2266 32.3906 12.6641 31.6094 13.0234C30.8438 13.3828 30.0547 13.6641 29.2422 13.8672C28.4297 14.0547 27.6406 14.1484 26.875 14.1484C26.7969 14.1484 26.7031 14.1562 26.5938 14.1719C26.4844 14.1719 26.3672 14.1641 26.2422 14.1484C26.1172 14.1328 26 14.1172 25.8906 14.1016C25.7812 14.0703 25.7031 14.0156 25.6562 13.9375C25.4531 14.3438 25.2344 14.75 25 15.1562C24.7812 15.5469 24.5312 15.9219 24.25 16.2812C23.625 17.125 22.8438 17.8281 21.9062 18.3906C20.9688 18.9375 19.9609 19.2109 18.8828 19.2109C18.8047 19.2109 18.7422 19.1719 18.6953 19.0938C18.6328 19.0156 18.6016 18.9375 18.6016 18.8594C18.6016 18.6719 18.6875 18.5625 18.8594 18.5312C19.1719 18.4531 19.4688 18.3906 19.75 18.3438C20.0312 18.2812 20.3281 18.1875 20.6406 18.0625C21.3594 17.75 21.9844 17.3125 22.5156 16.75C23.0625 16.1719 23.5391 15.5312 23.9453 14.8281C24.3516 14.125 24.7031 13.3984 25 12.6484C25.2969 11.8828 25.5625 11.1562 25.7969 10.4688C26 9.84375 26.1875 9.21094 26.3594 8.57031C26.5469 7.92969 26.7344 7.29688 26.9219 6.67188C27.1094 6.03125 27.3125 5.39844 27.5312 4.77344C27.75 4.14844 28.0078 3.53906 28.3047 2.94531C27.8672 3.21094 27.4219 3.45312 26.9688 3.67188C26.5156 3.875 26.0703 4.10938 25.6328 4.375C25.3203 4.5625 25 4.77344 24.6719 5.00781C24.3594 5.22656 24.0625 5.46875 23.7812 5.73438C23.5 6 23.2422 6.28906 23.0078 6.60156C22.7891 6.89844 22.6094 7.22656 22.4688 7.58594C22.4062 7.74219 22.3594 7.89844 22.3281 8.05469C22.3125 8.19531 22.2891 8.35156 22.2578 8.52344C22.2266 8.60156 22.1797 8.66406 22.1172 8.71094C22.0547 8.74219 21.9922 8.75781 21.9297 8.75781C21.7578 8.75781 21.6484 8.71094 21.6016 8.61719C21.5703 8.50781 21.5547 8.39062 21.5547 8.26562C21.5547 7.73438 21.6562 7.23438 21.8594 6.76562C22.0625 6.28125 22.3203 5.83594 22.6328 5.42969C22.9609 5.00781 23.3281 4.625 23.7344 4.28125C24.1562 3.9375 24.5781 3.63281 25 3.36719C25.7031 2.91406 26.4453 2.47656 27.2266 2.05469C28.0078 1.61719 28.7891 1.26562 29.5703 1H29.6172C29.7109 1 29.8047 1.03906 29.8984 1.11719C30.0078 1.19531 30.0625 1.28906 30.0625 1.39844C30.0625 1.41406 30.0312 1.5 29.9688 1.65625C29.9219 1.8125 29.8594 1.98438 29.7812 2.17188C29.7188 2.35938 29.6484 2.53906 29.5703 2.71094C29.5078 2.88281 29.4688 2.99219 29.4531 3.03906C29.7344 2.77344 30.0469 2.52344 30.3906 2.28906C30.7344 2.03906 31.0938 1.82031 31.4688 1.63281C31.8438 1.44531 32.2266 1.29688 32.6172 1.1875C33.0234 1.07812 33.4297 1.02344 33.8359 1.02344C34.4609 1.02344 34.9922 1.15625 35.4297 1.42188C35.8672 1.6875 36.2188 2.03125 36.4844 2.45312C36.7656 2.875 36.9688 3.35156 37.0938 3.88281C37.2188 4.41406 37.2812 4.94531 37.2812 5.47656ZM36.0859 5.5C36.0859 5.15625 36.0469 4.79688 35.9688 4.42188C35.9062 4.03125 35.7891 3.6875 35.6172 3.39062C35.4453 3.07812 35.2109 2.82031 34.9141 2.61719C34.6328 2.41406 34.2812 2.3125 33.8594 2.3125C33.6094 2.3125 33.3594 2.34375 33.1094 2.40625C32.8594 2.46875 32.6172 2.54688 32.3828 2.64062C31.7109 2.90625 31.0859 3.27344 30.5078 3.74219C29.9297 4.19531 29.4141 4.70312 28.9609 5.26562C28.8828 5.35938 28.7969 5.46875 28.7031 5.59375C28.625 5.70312 28.5547 5.8125 28.4922 5.92188C28.4141 6.09375 28.3281 6.34375 28.2344 6.67188C28.1562 6.98438 28.0859 7.24219 28.0234 7.44531C27.8516 8.00781 27.6719 8.57812 27.4844 9.15625C27.2969 9.71875 27.1094 10.2812 26.9219 10.8438C26.7656 11.2812 26.6016 11.7188 26.4297 12.1562C26.2734 12.5781 26.1016 13 25.9141 13.4219C25.9922 13.3906 26.0703 13.3828 26.1484 13.3984C26.2266 13.3984 26.3047 13.3984 26.3828 13.3984C27.4141 13.3984 28.4922 13.2031 29.6172 12.8125C30.7578 12.4062 31.8047 11.8516 32.7578 11.1484C33.7266 10.4453 34.5234 9.61719 35.1484 8.66406C35.7734 7.69531 36.0859 6.64062 36.0859 5.5Z" fill="#1A1818"/>
</svg>
