<svg width="26" height="20" viewBox="0 0 26 20" fill="none" xmlns="http://www.w3.org/2000/svg">
<path d="M15.2969 1.26562C15.2969 1.33854 15.25 1.41667 15.1562 1.5C15.0625 1.57292 14.9896 1.63542 14.9375 1.6875C14.8333 1.80208 14.7344 1.92708 14.6406 2.0625C14.5469 2.1875 14.4531 2.31771 14.3594 2.45312C13.7344 3.33854 13.1927 4.27083 12.7344 5.25C12.2865 6.21875 11.8802 7.20833 11.5156 8.21875C11.2969 8.83333 11.1042 9.45833 10.9375 10.0938C10.7812 10.7292 10.625 11.3698 10.4688 12.0156C10.3229 12.651 10.1667 13.2865 10 13.9219C9.83333 14.5573 9.63542 15.1823 9.40625 15.7969C9.1875 16.3906 8.92708 16.9427 8.625 17.4531C8.32292 17.974 7.96875 18.4219 7.5625 18.7969C7.15625 19.1719 6.6875 19.4635 6.15625 19.6719C5.61458 19.8906 5 20 4.3125 20C3.8125 20 3.32292 19.9219 2.84375 19.7656C2.35417 19.6198 1.91146 19.3906 1.51562 19.0781C1.13021 18.776 0.854167 18.4219 0.6875 18.0156C0.520833 17.6094 0.4375 17.1719 0.4375 16.7031C0.4375 16.1198 0.546875 15.5365 0.765625 14.9531C0.973958 14.3698 1.26042 13.8125 1.625 13.2812C1.97917 12.7604 2.39062 12.2917 2.85938 11.875C3.31771 11.4479 3.80208 11.1094 4.3125 10.8594C4.375 10.8385 4.41667 10.8281 4.4375 10.8281C4.5 10.8281 4.55208 10.8542 4.59375 10.9062C4.63542 10.9479 4.65625 11 4.65625 11.0625C4.65625 11.1562 4.61458 11.2292 4.53125 11.2812C4.41667 11.3438 4.30729 11.4062 4.20312 11.4688C4.09896 11.5312 3.99479 11.599 3.89062 11.6719C3.36979 12.0365 2.91667 12.4688 2.53125 12.9688C2.14583 13.4688 1.82292 14.0052 1.5625 14.5781C1.41667 14.901 1.30208 15.2292 1.21875 15.5625C1.13542 15.9062 1.09375 16.25 1.09375 16.5938C1.09375 16.9792 1.16146 17.3385 1.29688 17.6719C1.42188 18.0052 1.63542 18.2917 1.9375 18.5312C2.27083 18.7812 2.64583 18.9635 3.0625 19.0781C3.47917 19.1927 3.88542 19.25 4.28125 19.25C4.88542 19.25 5.42188 19.151 5.89062 18.9531C6.34896 18.7656 6.75 18.5 7.09375 18.1562C7.4375 17.8229 7.73438 17.4271 7.98438 16.9688C8.24479 16.5208 8.46875 16.0365 8.65625 15.5156C8.88542 14.901 9.07812 14.276 9.23438 13.6406C9.40104 13.0052 9.55208 12.3698 9.6875 11.7344C9.83333 11.0885 9.98438 10.4479 10.1406 9.8125C10.2969 9.17708 10.4844 8.54688 10.7031 7.92188C11.0365 6.98438 11.4219 6.07292 11.8594 5.1875C12.3073 4.29167 12.8281 3.44792 13.4219 2.65625C13.2344 2.75 13.0417 2.84375 12.8438 2.9375C12.6562 3.03125 12.474 3.13542 12.2969 3.25C11.849 3.52083 11.4115 3.83854 10.9844 4.20312C10.5573 4.56771 10.25 5 10.0625 5.5C10.0208 5.59375 9.98958 5.6875 9.96875 5.78125C9.95833 5.86458 9.94271 5.95312 9.92188 6.04688C9.91146 6.08854 9.88542 6.125 9.84375 6.15625C9.80208 6.17708 9.76042 6.1875 9.71875 6.1875C9.67708 6.1875 9.61979 6.17188 9.54688 6.14062C9.48438 6.09896 9.45312 6.05208 9.45312 6C9.45312 5.61458 9.52083 5.25521 9.65625 4.92188C9.80208 4.58854 9.98438 4.28125 10.2031 4C10.4323 3.70833 10.6927 3.44792 10.9844 3.21875C11.276 2.97917 11.5729 2.76562 11.875 2.57812C12.3646 2.27604 12.8646 1.98438 13.375 1.70312C13.8958 1.42188 14.4271 1.18229 14.9688 0.984375H15.0156C15.0677 0.984375 15.125 1.01562 15.1875 1.07812C15.2604 1.14062 15.2969 1.20312 15.2969 1.26562ZM25.1875 3.98438C25.1875 4.54688 25.0833 5.07812 24.875 5.57812C24.6771 6.07812 24.4062 6.54688 24.0625 6.98438C23.7188 7.41146 23.3177 7.79688 22.8594 8.14062C22.4115 8.48438 21.9271 8.77604 21.4062 9.01562C20.8958 9.25521 20.3698 9.44271 19.8281 9.57812C19.2865 9.70312 18.7604 9.76562 18.25 9.76562C18.1979 9.76562 18.1354 9.77083 18.0625 9.78125C17.9896 9.78125 17.9115 9.77604 17.8281 9.76562C17.7448 9.75521 17.6667 9.74479 17.5938 9.73438C17.5208 9.71354 17.4688 9.67708 17.4375 9.625C17.3021 9.89583 17.1562 10.1667 17 10.4375C16.8542 10.6979 16.6875 10.9479 16.5 11.1875C16.0833 11.75 15.5625 12.2188 14.9375 12.5938C14.3125 12.9583 13.6406 13.1406 12.9219 13.1406C12.8698 13.1406 12.8281 13.1146 12.7969 13.0625C12.7552 13.0104 12.7344 12.9583 12.7344 12.9062C12.7344 12.7812 12.7917 12.7083 12.9062 12.6875C13.1146 12.6354 13.3125 12.5938 13.5 12.5625C13.6875 12.5208 13.8854 12.4583 14.0938 12.375C14.5729 12.1667 14.9896 11.875 15.3438 11.5C15.7083 11.1146 16.026 10.6875 16.2969 10.2188C16.5677 9.75 16.8021 9.26562 17 8.76562C17.1979 8.25521 17.375 7.77083 17.5312 7.3125C17.6667 6.89583 17.7917 6.47396 17.9062 6.04688C18.0312 5.61979 18.1562 5.19792 18.2812 4.78125C18.4062 4.35417 18.5417 3.93229 18.6875 3.51562C18.8333 3.09896 19.0052 2.69271 19.2031 2.29688C18.9115 2.47396 18.6146 2.63542 18.3125 2.78125C18.0104 2.91667 17.7135 3.07292 17.4219 3.25C17.2135 3.375 17 3.51562 16.7812 3.67188C16.5729 3.81771 16.375 3.97917 16.1875 4.15625C16 4.33333 15.8281 4.52604 15.6719 4.73438C15.526 4.93229 15.4062 5.15104 15.3125 5.39062C15.2708 5.49479 15.2396 5.59896 15.2188 5.70312C15.2083 5.79688 15.1927 5.90104 15.1719 6.01562C15.151 6.06771 15.1198 6.10938 15.0781 6.14062C15.0365 6.16146 14.9948 6.17188 14.9531 6.17188C14.8385 6.17188 14.7656 6.14062 14.7344 6.07812C14.7135 6.00521 14.7031 5.92708 14.7031 5.84375C14.7031 5.48958 14.7708 5.15625 14.9062 4.84375C15.0417 4.52083 15.2135 4.22396 15.4219 3.95312C15.6406 3.67188 15.8854 3.41667 16.1562 3.1875C16.4375 2.95833 16.7188 2.75521 17 2.57812C17.4688 2.27604 17.9635 1.98438 18.4844 1.70312C19.0052 1.41146 19.526 1.17708 20.0469 1H20.0781C20.1406 1 20.2031 1.02604 20.2656 1.07812C20.3385 1.13021 20.375 1.19271 20.375 1.26562C20.375 1.27604 20.3542 1.33333 20.3125 1.4375C20.2812 1.54167 20.2396 1.65625 20.1875 1.78125C20.1458 1.90625 20.099 2.02604 20.0469 2.14062C20.0052 2.25521 19.9792 2.32812 19.9688 2.35938C20.1562 2.18229 20.3646 2.01562 20.5938 1.85938C20.8229 1.69271 21.0625 1.54688 21.3125 1.42188C21.5625 1.29688 21.8177 1.19792 22.0781 1.125C22.349 1.05208 22.6198 1.01562 22.8906 1.01562C23.3073 1.01562 23.6615 1.10417 23.9531 1.28125C24.2448 1.45833 24.4792 1.6875 24.6562 1.96875C24.8438 2.25 24.9792 2.56771 25.0625 2.92188C25.1458 3.27604 25.1875 3.63021 25.1875 3.98438ZM24.3906 4C24.3906 3.77083 24.3646 3.53125 24.3125 3.28125C24.2708 3.02083 24.1927 2.79167 24.0781 2.59375C23.9635 2.38542 23.8073 2.21354 23.6094 2.07812C23.4219 1.94271 23.1875 1.875 22.9062 1.875C22.7396 1.875 22.5729 1.89583 22.4062 1.9375C22.2396 1.97917 22.0781 2.03125 21.9219 2.09375C21.474 2.27083 21.0573 2.51562 20.6719 2.82812C20.2865 3.13021 19.9427 3.46875 19.6406 3.84375C19.5885 3.90625 19.5312 3.97917 19.4688 4.0625C19.4167 4.13542 19.3698 4.20833 19.3281 4.28125C19.276 4.39583 19.2188 4.5625 19.1562 4.78125C19.1042 4.98958 19.0573 5.16146 19.0156 5.29688C18.901 5.67188 18.7812 6.05208 18.6562 6.4375C18.5312 6.8125 18.4062 7.1875 18.2812 7.5625C18.1771 7.85417 18.0677 8.14583 17.9531 8.4375C17.849 8.71875 17.7344 9 17.6094 9.28125C17.6615 9.26042 17.7135 9.25521 17.7656 9.26562C17.8177 9.26562 17.8698 9.26562 17.9219 9.26562C18.6094 9.26562 19.3281 9.13542 20.0781 8.875C20.8385 8.60417 21.5365 8.23438 22.1719 7.76562C22.8177 7.29688 23.349 6.74479 23.7656 6.10938C24.1823 5.46354 24.3906 4.76042 24.3906 4Z" fill="white"/>
</svg>
